<?xml version="1.0" encoding="UTF-8"?>
<svg id="Layer_2" data-name="Layer 2" xmlns="http://www.w3.org/2000/svg" viewBox="0 0 103.42 103.42">
  <defs>
    <style>
      .cls-1 {
        fill: #16233f;
      }

      .cls-2 {
        fill: #fff;
      }

      .cls-3 {
        fill: #5b9bd5;
      }

      .cls-4 {
        fill: #2d4a73;
      }

      .cls-5 {
        fill: #22304f;
      }

      .cls-6 {
        fill: #101b33;
      }

      .cls-7 {
        fill: #3a5a8c;
      }
    </style>
  </defs>
  <g id="Layer_1-2" data-name="Layer 1">
    <g>
      <circle class="cls-6" cx="51.71" cy="51.71" r="51.71"/>
      <polygon class="cls-2" points="19.11 39.9 51.71 9.01 84.31 39.9 51.71 95 19.11 39.9"/>
      <polygon class="cls-1" points="51.71 10.38 20.38 40.08 51.71 93.03 83.04 40.08 51.71 10.38"/>
      <g>
        <polygon class="cls-7" points="51.71 10.38 20.38 40.08 51.71 93.03 51.71 10.38"/>
        <polygon class="cls-1" points="51.71 10.38 83.04 40.08 51.71 93.03 51.71 10.38"/>
        <polygon class="cls-5" points="51.71 10.38 39.65 26.13 20.38 40.08 51.71 10.38"/>
        <polygon class="cls-4" points="39.65 26.13 51.71 59.64 20.38 40.08 39.65 26.13"/>
        <polygon class="cls-3" points="51.71 10.38 51.71 59.64 39.65 26.13 51.71 10.38"/>
        <polygon class="cls-5" points="51.71 10.38 63.76 26.13 83.04 40.08 51.71 10.38"/>
        <polygon class="cls-6" points="63.76 26.13 51.71 59.64 83.04 40.08 63.76 26.13"/>
        <polygon class="cls-3" points="51.71 10.38 51.71 59.64 63.76 26.13 51.71 10.38"/>
      </g>
    </g>
  </g>
</svg>